HIERARCHY
ROOT Pelvis
{
	OFFSET 0.000000 0.000000 0.000000
	CHANNELS 6 Xposition Yposition Zposition Xrotation Yrotation Zrotation
	JOINT LeftUpLeg_virtual
	{
		OFFSET 0.000000 0.000000 0.000000
		CHANNELS 3 Xrotation Yrotation Zrotation
		JOINT LeftUpLeg
		{
			OFFSET 18.735201 -5.666702 -4.541200
			CHANNELS 3 Xrotation Yrotation Zrotation
			JOINT LeftLeg
			{
				OFFSET -0.021200 -31.938179 0.493100
				CHANNELS 3 Xrotation Yrotation Zrotation
				JOINT LeftFoot
				{
					OFFSET 0.021200 -31.938179 -4.336299
					CHANNELS 3 Xrotation Yrotation Zrotation
					JOINT LeftToeBase
					{
						OFFSET 0.943001 -26.722000 15.023500
						CHANNELS 3 Xrotation Yrotation Zrotation
						End Site
						{
							OFFSET 0 0 0
						}
					}
				}
			}
		}
	}
	JOINT RightUpLeg_virtual
	{
		OFFSET 0.000000 0.000000 0.000000
		CHANNELS 3 Xrotation Yrotation Zrotation
		JOINT RightUpLeg
		{
			OFFSET -18.735201 -5.666702 -4.541200
			CHANNELS 3 Xrotation Yrotation Zrotation
			JOINT RightLeg
			{
				OFFSET 0.018946 -31.938133 0.493100
				CHANNELS 3 Xrotation Yrotation Zrotation
				JOINT RightFoot
				{
					OFFSET -0.018946 -31.938126 -4.336299
					CHANNELS 3 Xrotation Yrotation Zrotation
					JOINT RightToeBase
					{
						OFFSET -0.943001 -26.722004 15.023500
						CHANNELS 3 Xrotation Yrotation Zrotation
						End Site
						{
							OFFSET 0 0 0
						}
					}
				}
			}
		}
	}
	JOINT Hips_virtual
	{
		OFFSET 0.000000 0.000000 0.000000
		CHANNELS 3 Xrotation Yrotation Zrotation
		JOINT Hips
		{
			OFFSET -0.000000 -0.000000 -0.000000
			CHANNELS 3 Xrotation Yrotation Zrotation
			JOINT Spine
			{
				OFFSET 0.000000 10.199997 -0.299500
				CHANNELS 3 Xrotation Yrotation Zrotation
				JOINT Spine1
				{
					OFFSET 0.000000 11.900002 -1.516600
					CHANNELS 3 Xrotation Yrotation Zrotation
					JOINT Spine2
					{
						OFFSET 0.000000 13.600006 -2.842500
						CHANNELS 3 Xrotation Yrotation Zrotation
						JOINT Neck_virtual
						{
							OFFSET 0.000000 0.000000 0.000000
							CHANNELS 3 Xrotation Yrotation Zrotation
							JOINT Neck
							{
								OFFSET 0.000000 9.624100 -2.890100
								CHANNELS 3 Xrotation Yrotation Zrotation
								JOINT Head
								{
									OFFSET 0.000000 14.068802 -1.351900
									CHANNELS 3 Xrotation Yrotation Zrotation
									End Site
									{
										OFFSET 0 0 0
									}
								}
							}
						}
						JOINT LeftShoulder_virtual
						{
							OFFSET 0.000000 0.000000 0.000000
							CHANNELS 3 Xrotation Yrotation Zrotation
							JOINT LeftShoulder
							{
								OFFSET 15.263000 10.923401 -0.547700
								CHANNELS 3 Xrotation Yrotation Zrotation
								JOINT LeftArm
								{
									OFFSET 25.438599 -2.830597 -13.032500
									CHANNELS 3 Xrotation Yrotation Zrotation
									JOINT LeftForeArm
									{
										OFFSET 29.960503 0.000000 0.000000
										CHANNELS 3 Xrotation Yrotation Zrotation
										JOINT LeftHand
										{
											OFFSET 27.849251 0.000000 0.000000
											CHANNELS 3 Xrotation Yrotation Zrotation
											End Site
											{
												OFFSET 0 0 0
											}
										}
									}
								}
							}
						}
						JOINT RightShoulder_virtual
						{
							OFFSET 0.000000 0.000000 0.000000
							CHANNELS 3 Xrotation Yrotation Zrotation
							JOINT RightShoulder
							{
								OFFSET -15.263000 10.923401 -0.547700
								CHANNELS 3 Xrotation Yrotation Zrotation
								JOINT RightArm
								{
									OFFSET -25.438599 -2.830597 -13.032500
									CHANNELS 3 Xrotation Yrotation Zrotation
									JOINT RightForeArm
									{
										OFFSET -29.960503 0.000000 0.000000
										CHANNELS 3 Xrotation Yrotation Zrotation
										JOINT RightHand
										{
											OFFSET -27.849251 0.000000 0.000000
											CHANNELS 3 Xrotation Yrotation Zrotation
											End Site
											{
												OFFSET 0 0 0
											}
										}
									}
								}
							}
						}
					}
				}
			}
		}
	}
}
MOTION
Frames: 6
Frame Time: 0.03333333
-1.142084 92.503120 14.675636 0.000000 0.000000 0.000000 -4.236913 -12.289937 -3.537831 -17.013626 3.329757 18.433665 28.380891 6.669368 -2.191295 1.053665 -0.811945 -3.408143 0.000000 0.000000 0.000000 -5.208823 -11.267238 -3.064048 5.169173 -5.695292 8.372117 -0.596336 -6.995266 0.439978 6.986998 1.533347 -2.412355 0.000000 0.000000 0.000000 -4.583153 -11.224225 -3.178047 -0.807327 0.129859 -0.023369 0.737913 -1.737743 2.129064 0.511544 0.522145 3.823776 0.000000 0.000000 0.000000 -1.176002 0.976771 3.702621 2.942519 -2.101884 -0.087569 0.000000 0.000000 0.000000 -2.563836 0.978257 4.069049 2.851936 -18.099066 -1.875396 8.233929 -2.301616 -75.114220 -3.008466 -9.814281 -11.317506 0.000000 0.000000 0.000000 -1.029222 0.728967 3.685370 8.590439 4.713641 0.588831 -3.349396 7.763280 66.437489 5.598570 16.541567 6.690148 0.000000 0.000000 0.000000 
-1.207064 92.483917 14.670185 0.000000 0.000000 0.000000 -4.198687 -12.174542 -3.550078 -17.043475 3.316062 18.529694 28.320855 6.537258 -2.178051 0.866060 -0.952377 -3.771557 0.000000 0.000000 0.000000 -5.178979 -11.190726 -3.097996 5.280845 -5.710080 8.482099 -0.745914 -7.080957 0.417678 6.845791 1.460304 -2.361091 0.000000 0.000000 0.000000 -4.551546 -11.150875 -3.223607 -0.806773 0.133176 -0.023354 0.603451 -1.775095 2.198887 0.519146 0.597074 3.859858 0.000000 0.000000 0.000000 -1.205357 1.040372 3.670072 2.866638 -2.075669 -0.082160 0.000000 0.000000 0.000000 -2.504330 1.053293 4.148714 2.860689 -18.291875 -1.968469 8.135580 -2.456037 -74.899704 -3.125779 -9.925663 -11.278025 0.000000 0.000000 0.000000 -0.994913 0.789373 3.645757 8.685089 4.776563 0.603879 -3.522143 8.095463 66.505545 5.579231 16.365307 6.656085 0.000000 0.000000 0.000000 
-1.343170 92.420319 14.675522 0.000000 0.000000 0.000000 -4.166362 -11.937647 -3.611792 -17.281977 3.392243 18.750592 28.453689 6.411992 -2.184475 0.619465 -0.991025 -4.113123 0.000000 0.000000 0.000000 -5.138010 -11.026826 -3.183075 5.496995 -5.771642 8.652137 -1.120249 -7.051456 0.535760 7.314257 1.563425 -1.988673 0.000000 0.000000 0.000000 -4.511213 -10.989345 -3.322542 -0.806430 0.134309 -0.024369 0.407979 -1.826659 2.348600 0.537351 0.681458 3.858710 0.000000 0.000000 0.000000 -1.319057 1.099240 3.623928 2.739928 -2.020495 -0.066024 0.000000 0.000000 0.000000 -2.444670 1.121640 4.224992 2.919014 -18.414021 -2.111598 7.765359 -2.909794 -74.477441 -3.192535 -9.815165 -11.191517 0.000000 0.000000 0.000000 -0.994978 0.847637 3.590122 8.858631 4.985209 0.702162 -3.697033 8.687459 66.451061 5.604962 15.925269 6.612997 0.000000 0.000000 0.000000 
-1.530102 92.330452 14.666744 0.000000 0.000000 0.000000 -4.128573 -11.631886 -3.702356 -17.700814 3.454173 19.055864 28.765922 6.264891 -2.168383 0.373507 -0.938285 -4.422271 0.000000 0.000000 0.000000 -5.082444 -10.784385 -3.293742 5.728929 -5.765094 8.855995 -1.626453 -6.915211 0.725221 8.373682 1.800706 -1.457521 0.000000 0.000000 0.000000 -4.460356 -10.784968 -3.452162 -0.807700 0.135458 -0.028115 0.171386 -1.893052 2.552355 0.575770 0.762036 3.820356 0.000000 0.000000 0.000000 -1.493108 1.144723 3.560605 2.575613 -1.938065 -0.038762 0.000000 0.000000 0.000000 -2.388519 1.169089 4.279634 3.017357 -18.471005 -2.285100 7.189664 -3.641377 -73.899737 -3.208991 -9.503716 -11.064538 0.000000 0.000000 0.000000 -1.020129 0.897137 3.517958 9.089342 5.306376 0.878031 -3.827688 9.469486 66.314942 5.683011 15.235154 6.541189 0.000000 0.000000 0.000000 
-1.743343 92.226387 14.668167 0.000000 0.000000 0.000000 -4.072941 -11.329239 -3.804333 -18.216751 3.403227 19.379163 29.240234 6.031337 -2.074161 0.140219 -0.858424 -4.807148 0.000000 0.000000 0.000000 -4.997506 -10.495635 -3.400616 5.945490 -5.628575 9.077204 -2.180861 -6.738585 0.894571 9.564581 2.048747 -0.973409 0.000000 0.000000 0.000000 -4.380351 -10.544328 -3.583052 -0.809647 0.132255 -0.031141 -0.082868 -1.970274 2.775244 0.632973 0.832862 3.746451 0.000000 0.000000 0.000000 -1.683716 1.174217 3.475964 2.393522 -1.834180 -0.003037 0.000000 0.000000 0.000000 -2.341762 1.189673 4.298678 3.161051 -18.483178 -2.447812 6.445027 -4.618824 -73.252939 -3.187004 -9.085386 -10.904091 0.000000 0.000000 0.000000 -1.053924 0.934489 3.429920 9.363542 5.713043 1.128441 -3.937978 10.383410 66.139399 5.824409 14.331274 6.415862 0.000000 0.000000 0.000000 
-1.953414 92.119270 14.682587 0.000000 0.000000 0.000000 -3.986308 -11.067998 -3.903034 -18.740495 3.253660 19.688915 29.789891 5.673642 -1.883847 -0.087798 -0.824842 -5.429588 0.000000 0.000000 0.000000 -4.891089 -10.216670 -3.489135 6.145454 -5.384408 9.302402 -2.697456 -6.576207 0.997951 10.438144 2.248341 -0.584069 0.000000 0.000000 0.000000 -4.277126 -10.301006 -3.703218 -0.812133 0.122379 -0.028963 -0.349651 -2.053461 2.980239 0.712749 0.898704 3.643364 0.000000 0.000000 0.000000 -1.853065 1.189855 3.370584 2.217115 -1.717147 0.035486 0.000000 0.000000 0.000000 -2.297999 1.185680 4.271436 3.351237 -18.454589 -2.574035 5.622901 -5.768209 -72.642566 -3.133862 -8.729277 -10.716577 0.000000 0.000000 0.000000 -1.083966 0.966225 3.328445 9.664800 6.174018 1.427861 -4.070568 11.368822 65.927950 6.028252 13.236231 6.205077 0.000000 0.000000 0.000000 
